<?xml version="1.0" encoding="UTF-8"?>
<svg id="Layer_2" data-name="Layer 2" xmlns="http://www.w3.org/2000/svg" viewBox="0 0 562.22 635.69">
  <defs>
    <style>
      .cls-1 {
        fill: #ef0b0b;
      }
    </style>
  </defs>
  <g id="Layer_1-2" data-name="Layer 1">
    <g id="SvgjsG4075">
      <path class="cls-1" d="m481.01,323.11c-3.92-.83-8.01-1.23-12.17-1.33,9.32-25.46,15.85-54.35,16.86-85.96,8.37,12.59,19.31,24.28,31.32,24.28h.84l1.15.17c26.4-2.68,48.11-66.78,42.24-124.81-2.64-26-11.92-72.39-24.26-94.33-3.9-6.93-12.01-21.31-28.55-21.31-3.28,0-6.2.56-8.78,1.04-1.63.31-3.18.6-4.84.78-1.65.17-3.22.18-4.89.21-17.6.24-26.1,7.41-32.51,27.4-1.05,3.27-1.93,7.21-2.74,11.44-7.59-14.87-16.57-28.16-27.06-39.93-11.81-13.23-26.64-19.95-44.07-19.95s-35.61,6.85-52.99,13.48c-16.41,6.26-33.39,12.74-48.48,12.74s-31.82-6.66-48.16-13.1C216.52,7.09,198.54,0,180.85,0s-31.32,6.46-42.89,19.18c-11.25,12.39-20.78,26.46-28.78,42.3-.72-4.19-1.53-8.1-2.52-11.38-6.05-20.09-14.44-27.4-32.02-27.95-1.67-.05-3.24-.1-4.89-.3-1.66-.2-3.2-.52-4.83-.86-2.71-.56-5.78-1.21-9.26-1.21-16.2,0-24.45,14.1-28.42,20.88C14.52,62.38,4.44,108.67,1.34,134.6c-6.89,57.93,13.69,122.51,40.03,125.66l.98.12,1.37.02c13,0,25.46-13.72,34.63-27.36.66,32.66,7.08,62.37,16.35,88.43-3.88.07-7.72.41-11.41,1.13-17.82,3.46-33.18,13.64-43.32,28.66-10.13,15.02-13.81,33.07-10.35,50.85,2.71,13.95,16.91,43.11,39.84,89.54,12.26,24.8,25.63,51.9,34.71,72.68-7.14,2.66-13.27,7.46-17.62,13.91-5.51,8.15-7.5,17.97-5.63,27.63,3.36,17.29,18.58,29.83,36.16,29.83,2.35,0,4.72-.22,7.04-.68,6.82-1.33,12.92-4.5,17.79-8.97,4.04,1.52,8.39,2.33,12.83,2.33,2.35,0,4.7-.22,7.01-.68,9.65-1.87,18.01-7.4,23.52-15.57,5.49-8.15,7.49-16.09,5.62-25.75-3.34-17.29-18.54-27.95-36.11-27.95h-.73c.17-33.15,2.95-61.96,5.47-93.4.87-10.83,1.7-22.13,2.4-31.8,38.96,42.3,84.92,68.56,120.16,68.56s79.18-26.92,118.43-69.19c.52,9.41,1.15,19.34,1.81,29.84,1.97,31.47,4.14,65.98,3.87,91.53-.46-.02-.91-.06-1.38-.06-17.26,0-32.4,12.26-36.01,29.18-2.05,9.63-.22,19.47,5.14,27.72,5.36,8.27,13.63,13.94,23.26,15.98,2.49.52,5.06.8,7.63.8,4.21,0,8.34-.74,12.22-2.12,4.78,4.57,10.82,7.84,17.61,9.3,2.54.53,5.12.81,7.68.81,17.29,0,32.45-12.28,36.05-29.2,2.05-9.62.22-19.47-5.13-27.73-4.24-6.52-10.28-11.44-17.38-14.22,9.43-20.6,23.28-47.45,35.95-72.01,23.75-46.04,38.46-74.96,41.4-88.88,3.77-17.7.41-35.82-9.46-51.01-9.88-15.21-25.07-25.65-42.79-29.41Zm-13-233.16c.79-14.23,2.47-27.16,5.2-35.64,6.23-19.45,10.87-14.92,23.29-16.18,5.12-.51,8.75-1.74,11.94-1.74,4.55,0,8.23,2.47,14.1,12.93,10.02,17.8,19.33,59.5,22.22,87.93,5.75,56.86-16.76,105.7-27.41,106.78-.11,0-.21.02-.31.02-5.94,0-20-15.69-31.52-40.33-.58-16.84-1.81-32.67-3.69-47.53-2.31-23.6-6.7-45.84-13.81-66.23ZM43.73,243.84c-.13,0-.26,0-.37-.02-10.62-1.27-32.29-50.5-25.55-107.24,3.39-28.38,13.42-69.91,23.75-87.53,5.96-10.18,9.65-12.67,14.1-12.67,3.25,0,6.9,1.33,12.13,1.95,12.39,1.48,17.11-2.97,23,16.58,2.58,8.54,4.04,21.49,4.57,35.73-11.98,32.49-17.05,69.88-17.8,110.07-12.21,26.36-27.6,43.13-33.84,43.13Zm111.05,327.41c9.51,0,17.98,6.73,19.86,16.4,2.13,10.97-5.04,21.64-16.04,23.77-1.29.25-2.59.37-3.85.37-7.38,0-14.1-4.1-17.63-10.46-1.07,8.45-7.33,15.7-16.14,17.41-1.3.25-2.6.37-3.88.37-9.52,0-18.02-6.75-19.9-16.42-2.14-10.98,5.04-21.62,16.04-23.76,1.28-.25,2.54-.36,3.8-.36,4.44,0,8.63,1.51,12.06,4.07-12.78-41.28-78.31-158.66-83.18-183.7-5.39-27.76,12.74-54.67,40.51-60.06,3.22-.61,6.41-.89,9.58-.89.9,0,1.81.02,2.7.07,11.27,31.22,27.98,59.69,47.31,84.14-3.26,49.09-11.34,123.57-7.53,157.42,2.89-3.99,7.17-6.99,12.41-7.99,1.28-.27,2.59-.38,3.88-.38Zm127.29-86.52c-65.49,0-187.32-115.14-187.32-257.16,0-79.23,12.61-150.08,55.47-197.25,9.15-10.08,19.49-13.76,30.62-13.76,30.19,0,66.32,27.04,101.22,27.04s71.2-26.21,101.46-26.22c11.57,0,22.27,3.83,31.71,14.41,42.08,47.17,54.14,117.38,54.14,195.78.02,142.03-125.96,257.16-187.3,257.16Zm234.95-84.65c-5.3,24.94-72.87,141.17-86.37,182.21,3.37-2.45,7.45-3.87,11.78-3.87,1.36,0,2.74.15,4.14.44,10.95,2.33,17.94,13.09,15.61,24.04-2.02,9.52-10.46,16.08-19.84,16.08-1.39,0-2.8-.15-4.22-.45-8.78-1.88-14.91-9.22-15.83-17.69-3.6,6.19-10.23,10.15-17.46,10.15-1.38,0-2.79-.15-4.2-.45-10.95-2.31-17.94-13.1-15.62-24.04,2.03-9.52,10.44-16.06,19.8-16.06,1.4,0,2.83.15,4.25.46,5.23,1.09,9.46,4.16,12.26,8.2,4.39-33.77-2.39-108.39-4.79-157.53,19.76-24.11,36.97-52.29,48.78-83.3.6-.02,1.21-.02,1.81-.02,3.45,0,6.94.32,10.45,1.06,27.66,5.88,45.33,33.11,39.45,60.77Z"/>
    </g>
  </g>
</svg>