
        <svg xmlns="http://www.w3.org/2000/svg" xmlns:xlink="http://www.w3.org/1999/xlink" version="1.1" width="3147.783251231527" 
        height="783.4782371850501" viewBox="0 0 3147.783251231527 783.4782371850501">
			
			<g transform="scale(7.389162561576355) translate(10, 10)">
				<defs id="SvgjsDefs4074"></defs><g id="SvgjsG4075" featureKey="symbolFeature-0" transform="matrix(1.1214914631733048,0,0,1.1214914631733048,-17.100644241537665,-9.660525684064273)" fill="#ffffff"><g xmlns="http://www.w3.org/2000/svg"><path d="M73.293,47.604c-0.473-0.1-0.967-0.149-1.468-0.161c1.125-3.072,1.913-6.558,2.034-10.373c1.01,1.519,2.33,2.93,3.78,2.93   h0.101l0.139,0.02c3.186-0.323,5.805-8.058,5.097-15.061c-0.319-3.137-1.438-8.735-2.928-11.383   c-0.471-0.836-1.449-2.571-3.445-2.571c-0.396,0-0.748,0.067-1.06,0.126c-0.197,0.038-0.384,0.073-0.584,0.094   c-0.199,0.02-0.389,0.022-0.59,0.025c-2.124,0.029-3.15,0.894-3.923,3.307c-0.127,0.395-0.233,0.87-0.331,1.381   c-0.916-1.795-1.999-3.398-3.266-4.818c-1.425-1.597-3.215-2.407-5.318-2.407c-2.128,0-4.297,0.827-6.395,1.627   c-1.98,0.755-4.029,1.537-5.85,1.537c-1.802,0-3.84-0.804-5.812-1.581c-2.098-0.827-4.267-1.682-6.402-1.682   c-2.039,0-3.78,0.779-5.176,2.315c-1.358,1.495-2.508,3.193-3.473,5.104c-0.087-0.506-0.185-0.978-0.304-1.373   c-0.73-2.424-1.742-3.307-3.864-3.373c-0.201-0.006-0.391-0.012-0.59-0.036c-0.2-0.024-0.386-0.063-0.583-0.104   c-0.327-0.068-0.697-0.146-1.118-0.146c-1.955,0-2.95,1.702-3.429,2.52c-1.535,2.621-2.751,8.207-3.125,11.336   c-0.831,6.99,1.652,14.784,4.831,15.164l0.118,0.014l0.165,0.002c1.569,0,3.072-1.656,4.179-3.302   c0.08,3.941,0.854,7.526,1.973,10.671c-0.468,0.009-0.931,0.05-1.377,0.136c-2.15,0.418-4.004,1.646-5.227,3.458   s-1.666,3.991-1.249,6.136c0.327,1.683,2.04,5.202,4.807,10.805c1.479,2.993,3.093,6.263,4.188,8.771   c-0.862,0.321-1.601,0.9-2.126,1.679c-0.665,0.984-0.905,2.169-0.679,3.334c0.406,2.086,2.242,3.6,4.364,3.6   c0.284,0,0.57-0.027,0.85-0.082c0.823-0.16,1.559-0.543,2.147-1.083c0.488,0.184,1.012,0.281,1.548,0.281   c0.283,0,0.567-0.027,0.846-0.082c1.165-0.226,2.173-0.893,2.838-1.879c0.663-0.984,0.904-1.942,0.678-3.107   C37.881,77.287,36.047,76,33.926,76c-0.03,0-0.059,0-0.088,0c0.021-4,0.356-7.477,0.66-11.271c0.105-1.307,0.205-2.67,0.29-3.837   c4.702,5.104,10.248,8.273,14.5,8.273c4.087,0,9.555-3.249,14.291-8.349c0.063,1.136,0.139,2.334,0.219,3.601   c0.238,3.797,0.499,7.962,0.467,11.045c-0.055-0.003-0.11-0.007-0.166-0.007c-2.083,0-3.91,1.479-4.345,3.521   c-0.247,1.162-0.026,2.349,0.62,3.345c0.647,0.998,1.645,1.682,2.807,1.928c0.301,0.063,0.611,0.097,0.921,0.097   c0.508,0,1.006-0.089,1.475-0.256c0.577,0.551,1.306,0.946,2.125,1.122c0.307,0.064,0.618,0.098,0.927,0.098   c2.087,0,3.916-1.482,4.35-3.524c0.247-1.161,0.027-2.35-0.619-3.346c-0.512-0.787-1.24-1.38-2.097-1.716   c1.138-2.486,2.809-5.726,4.338-8.69c2.866-5.556,4.641-9.046,4.996-10.725c0.455-2.136,0.05-4.322-1.141-6.156   C77.264,49.318,75.431,48.058,73.293,47.604z M71.724,19.468c0.095-1.717,0.298-3.277,0.627-4.301   c0.752-2.347,1.312-1.801,2.811-1.953c0.618-0.062,1.056-0.21,1.441-0.21c0.549,0,0.993,0.298,1.702,1.56   c1.209,2.148,2.332,7.18,2.681,10.611c0.694,6.861-2.023,12.755-3.308,12.886c-0.013,0.001-0.025,0.002-0.038,0.002   c-0.717,0-2.413-1.893-3.804-4.867c-0.07-2.032-0.218-3.942-0.445-5.736C73.112,24.612,72.582,21.928,71.724,19.468z    M20.525,38.039c-0.016,0-0.031,0-0.045-0.002c-1.282-0.153-3.896-6.094-3.083-12.941c0.409-3.425,1.619-8.436,2.866-10.563   c0.719-1.229,1.165-1.529,1.702-1.529c0.392,0,0.833,0.16,1.464,0.235c1.495,0.178,2.065-0.358,2.776,2.001   c0.311,1.03,0.487,2.593,0.552,4.312c-1.446,3.921-2.057,8.433-2.148,13.282C23.135,36.015,21.279,38.039,20.525,38.039z    M33.926,77.549c1.147,0,2.17,0.812,2.397,1.979c0.257,1.324-0.608,2.611-1.935,2.868c-0.156,0.03-0.312,0.045-0.464,0.045   c-0.89,0-1.701-0.495-2.128-1.262c-0.129,1.02-0.885,1.894-1.948,2.101c-0.157,0.03-0.314,0.045-0.468,0.045   c-1.149,0-2.174-0.814-2.401-1.981c-0.258-1.325,0.608-2.609,1.935-2.867c0.154-0.03,0.307-0.044,0.458-0.044   c0.536,0,1.042,0.182,1.455,0.491c-1.542-4.981-9.45-19.146-10.037-22.168c-0.651-3.35,1.537-6.597,4.889-7.248   c0.388-0.074,0.774-0.107,1.156-0.107c0.109,0,0.218,0.002,0.326,0.008c1.36,3.768,3.377,7.203,5.709,10.154   c-0.393,5.924-1.368,14.911-0.909,18.996c0.349-0.482,0.865-0.843,1.497-0.964C33.613,77.563,33.771,77.549,33.926,77.549z    M49.287,67.108c-7.903,0-22.604-13.894-22.604-31.032c0-9.561,1.522-18.111,6.694-23.803c1.104-1.216,2.352-1.66,3.695-1.66   c3.643,0,8.003,3.263,12.214,3.263c4.225,0,8.592-3.163,12.244-3.164c1.396,0,2.687,0.462,3.826,1.739   c5.078,5.692,6.533,14.165,6.533,23.625C71.891,53.215,56.689,67.108,49.287,67.108z M77.639,56.893   C77,59.903,68.846,73.928,67.217,78.881c0.407-0.296,0.899-0.467,1.421-0.467c0.164,0,0.331,0.018,0.499,0.053   c1.321,0.281,2.165,1.58,1.884,2.901c-0.244,1.149-1.262,1.94-2.394,1.94c-0.168,0-0.338-0.018-0.509-0.054   c-1.06-0.227-1.799-1.113-1.91-2.135c-0.435,0.747-1.234,1.225-2.107,1.225c-0.167,0-0.337-0.018-0.507-0.054   c-1.321-0.279-2.165-1.581-1.885-2.901c0.245-1.149,1.26-1.938,2.389-1.938c0.169,0,0.341,0.018,0.513,0.055   c0.631,0.132,1.141,0.502,1.48,0.99c0.53-4.075-0.289-13.08-0.578-19.009c2.384-2.909,4.461-6.31,5.886-10.052   c0.073-0.002,0.146-0.003,0.219-0.003c0.416,0,0.837,0.039,1.261,0.128C76.217,50.27,78.349,53.555,77.639,56.893z"></path></g></g><g id="SvgjsG4076" featureKey="textGroupContainer" transform="matrix(1,0,0,1,405,3)" fill="#ffffff"><rect xmlns="http://www.w3.org/2000/svg" y="0" height="1" width="1" opacity="0"></rect><rect xmlns="http://www.w3.org/2000/svg" y="0" x="-309" width="3" height="80"></rect></g><g id="SvgjsG4077" featureKey="vMvB0T-0" transform="matrix(2.799601502577463,0,0,2.799601502577463,109.7446047682649,6.090407031228445)" fill="#ffffff"><path d="M6.3 15.719999999999999 l-1.58 0 l0 4.28 q-0.64 0.12 -1.6 0.12 q-0.98 0 -1.6 -0.12 l0 -13.56 l0.14 -0.14 q1.74 -0.04 2.89 -0.06 t1.75 -0.02 q1.1 0 2.01 0.3 t1.55 0.9 t0.99 1.49 t0.35 2.05 t-0.36 2.05 t-1 1.49 t-1.55 0.91 t-1.99 0.31 z M4.72 8.66 l0 4.66 q0.56 -0.02 0.89 -0.03 t0.43 -0.01 q0.54 0 0.9 -0.19 t0.58 -0.5 t0.32 -0.73 t0.1 -0.88 q0 -0.44 -0.1 -0.86 t-0.31 -0.74 t-0.55 -0.51 t-0.8 -0.19 l-0.82 0 t-0.64 -0.02 z M23.1 10.56 q0 0.66 -0.2 1.25 t-0.53 1.06 t-0.78 0.82 t-0.93 0.53 q1.04 0.38 1.54 1.84 l0.6 1.7 q0.34 1 1 1.48 q-0.3 0.4 -0.9 0.67 t-1.32 0.27 t-1.12 -0.41 t-0.74 -1.43 l-0.72 -2.1 q-0.22 -0.6 -0.59 -0.92 t-1.11 -0.32 l-0.82 0 l0 5 q-0.64 0.12 -1.6 0.12 t-1.58 -0.12 l0 -13.56 l0.14 -0.14 q1.74 -0.04 2.93 -0.06 t1.87 -0.02 q1.1 0 2 0.27 t1.53 0.81 t0.98 1.36 t0.35 1.9 z M16.48 8.62 l0 3.92 q0.9 0 1.54 -0.03 t1.03 -0.24 t0.59 -0.59 t0.2 -1.1 q0 -1.94 -1.88 -1.94 l-0.83 0 t-0.65 -0.02 z M28.299999999999997 16.28 q0.54 1.56 2.18 1.56 q0.82 0 1.33 -0.41 t0.8 -1.04 t0.39 -1.41 t0.1 -1.54 q0 -0.7 -0.05 -1.56 t-0.29 -1.61 t-0.76 -1.26 t-1.52 -0.51 q-0.96 0 -1.47 0.49 t-0.76 1.21 t-0.31 1.53 t-0.06 1.43 q0 0.92 0.09 1.64 t0.33 1.48 z M26.679999999999996 19.04 q-2.14 -1.78 -2.14 -5.86 q0 -1.76 0.41 -3.09 t1.18 -2.23 t1.87 -1.36 t2.48 -0.46 t2.49 0.46 t1.88 1.37 t1.18 2.24 t0.41 3.07 t-0.41 3.07 t-1.18 2.23 t-1.88 1.36 t-2.49 0.46 q-2.28 0 -3.8 -1.26 z M38.26 19.96 l1.06 -13.6 q0.88 -0.16 2.08 -0.16 t2.1 0.16 l1.18 4.9 q0.7 3.32 0.74 3.62 l0.14 0 q0.08 -0.5 0.74 -3.62 l1.2 -4.9 q0.88 -0.16 2.08 -0.16 t2.1 0.16 l1.06 13.6 q-0.62 0.16 -1.53 0.16 t-1.49 -0.1 l-0.32 -5.56 q-0.14 -3.32 -0.16 -4.62 l-0.12 0 l-1.98 8.14 q-0.72 0.12 -1.65 0.12 t-1.65 -0.12 l-1.96 -8.14 l-0.14 0 q0 1.78 -0.16 4.62 l-0.3 5.56 q-0.58 0.1 -1.49 0.1 t-1.53 -0.16 z M58.47999999999999 15.96 l-0.02 1.44 l0 0.02 q0.92 -0.04 1.48 -0.04 l4.64 0 q0 0.74 -0.06 1.14 q-0.24 1.54 -2.04 1.54 l-5.32 0 q-0.86 0 -1.35 -0.5 t-0.49 -1.36 l0 -11.72 l0.14 -0.14 l8.62 0 q0.12 0.58 0.12 1.26 t-0.28 1.42 l-5.46 0 l0.02 1.44 l0 1.4 q0.52 -0.02 1.36 -0.02 l3.06 0 q0.18 0.56 0.18 1.28 t-0.18 1.32 l-4.42 0 l0 1.52 z M71.98 8.98 l0.02 1.48 l0 9.54 q-0.68 0.12 -1.62 0.12 t-1.58 -0.12 l0 -11.02 l-1.28 0.02 l-2.06 0 q-0.12 -0.58 -0.12 -1.33 t0.12 -1.33 l9.9 0 q0.16 0.52 0.16 1.26 t-0.4 1.07 t-1.28 0.33 l-0.58 0 l-1.26 -0.02 l-0.02 0 z M80.14 15.96 l-0.02 1.44 l0 0.02 q0.92 -0.04 1.48 -0.04 l4.64 0 q0 0.74 -0.06 1.14 q-0.24 1.54 -2.04 1.54 l-5.32 0 q-0.86 0 -1.35 -0.5 t-0.49 -1.36 l0 -11.72 l0.14 -0.14 l8.62 0 q0.12 0.58 0.12 1.26 t-0.28 1.42 l-5.46 0 l0.02 1.44 l0 1.4 q0.52 -0.02 1.36 -0.02 l3.06 0 q0.18 0.56 0.18 1.28 t-0.18 1.32 l-4.42 0 l0 1.52 z M91.22 16.28 q0.54 1.56 2.18 1.56 q0.82 0 1.33 -0.41 t0.8 -1.04 t0.39 -1.41 t0.1 -1.54 q0 -0.7 -0.05 -1.56 t-0.29 -1.61 t-0.76 -1.26 t-1.52 -0.51 q-0.96 0 -1.47 0.49 t-0.76 1.21 t-0.31 1.53 t-0.06 1.43 q0 0.92 0.09 1.64 t0.33 1.48 z M89.6 19.04 q-2.14 -1.78 -2.14 -5.86 q0 -1.76 0.41 -3.09 t1.18 -2.23 t1.87 -1.36 t2.48 -0.46 t2.49 0.46 t1.88 1.37 t1.18 2.24 t0.41 3.07 t-0.41 3.07 t-1.18 2.23 t-1.88 1.36 t-2.49 0.46 q-2.28 0 -3.8 -1.26 z"></path></g>
			</g>
		</svg>
	